<svg xmlns="http://www.w3.org/2000/svg" viewBox="0 0 720 410" role="img" aria-labelledby="title desc"><title id="title">PARA11AX request path</title><desc id="desc">Current PARA11AX request path without legacy logo geometry.</desc><rect width="720" height="410" fill="#020403"/><rect x="1" y="1" width="718" height="408" fill="none" stroke="#39FF14" stroke-opacity=".34" stroke-width="2"/><line x1="1" y1="52" x2="719" y2="52" stroke="#39FF14" stroke-opacity=".24"/><text x="24" y="34" data-wordmark="para11ax-angular-a" aria-label="PARA11AX" font-family="Arial Black,Arial,sans-serif" font-size="20" font-weight="900"><tspan fill="#F7FFF6">PΛRΛ</tspan><tspan fill="#39FF14">11</tspan><tspan fill="#F7FFF6">ΛX</tspan></text><text x="141" y="33" fill="#39FF14" font-size="16" font-weight="700" font-family="ui-monospace,SFMono-Regular,Menlo,Consolas,monospace" letter-spacing="1">// REQUEST PATH</text><text x="696" y="32" fill="#8DA391" font-size="11" text-anchor="end" font-family="ui-monospace,SFMono-Regular,Menlo,Consolas,monospace">FIXED EGRESS</text><g font-family="ui-monospace,SFMono-Regular,Menlo,Consolas,monospace" font-size="16"><rect x="24" y="68" width="672" height="46" fill="#020403" stroke="#39FF14" stroke-opacity=".22"/><text x="42" y="97" fill="#F7FFF6">01  CLIENT / CLI / MALTEGO</text><text x="670" y="97" fill="#8DA391" text-anchor="end">caller</text><path d="M360 114v18" stroke="#39FF14"/><path d="M355 126l5 6 5-6" fill="none" stroke="#39FF14"/><rect x="24" y="134" width="672" height="46" fill="#020403" stroke="#39FF14" stroke-opacity=".22"/><text x="42" y="163" fill="#F7FFF6">02  BEARER AUTH → CLASSIFIER → FAST / STANDARD / FULL</text><path d="M360 180v18" stroke="#39FF14"/><path d="M355 192l5 6 5-6" fill="none" stroke="#39FF14"/><rect x="24" y="200" width="672" height="46" fill="#020403" stroke="#39FF14" stroke-opacity=".55"/><text x="42" y="229" fill="#F7FFF6">03  TIERED SCHEDULER → </text><text x="287" y="229" fill="#39FF14" font-weight="700">safeFetch FIXED EGRESS</text><text x="670" y="229" fill="#8DA391" text-anchor="end">max 4</text><path d="M360 246v18" stroke="#FF2438"/><path d="M355 258l5 6 5-6" fill="none" stroke="#FF2438"/><rect x="24" y="266" width="672" height="46" fill="#020403" stroke="#39FF14" stroke-opacity=".28"/><text x="42" y="295" fill="#39FF14">04  39 FIXED SOURCES</text><text x="670" y="295" fill="#F7FFF6" text-anchor="end">PARSERS → BOUNDED CACHE</text><path d="M360 312v18" stroke="#39FF14"/><path d="M355 324l5 6 5-6" fill="none" stroke="#39FF14"/><rect x="24" y="332" width="672" height="54" fill="#020403" stroke="#39FF14" stroke-opacity=".55"/><text x="42" y="365" fill="#39FF14" font-weight="700">05  EVIDENCE V2</text><text x="205" y="365" fill="#F7FFF6">→ CORRELATION → JSON / BATCH / STIX 2.1</text></g></svg>