<svg xmlns="http://www.w3.org/2000/svg" viewBox="0 0 96 96" role="img" aria-labelledby="title desc" data-radar="ppi">
  <title id="title">PARA11AX radar mark</title>
  <desc id="desc">Compact moving phosphor radar mark.</desc>
  <style>.motion{display:block}.static-sweep{display:none}@media(prefers-reduced-motion: reduce){.motion{display:block}.static-sweep{display:none}}</style>
  <circle cx="48" cy="48" r="43" fill="#020403" stroke="#39FF14" stroke-width="2" stroke-opacity=".8"/>
  <circle cx="48" cy="48" r="31" fill="none" stroke="#39FF14" stroke-opacity=".34"/>
  <circle cx="48" cy="48" r="19" fill="none" stroke="#39FF14" stroke-opacity=".25"/>
  <circle cx="48" cy="48" r="8" fill="none" stroke="#39FF14" stroke-opacity=".18"/>
  <g id="crosshair" stroke="#39FF14"><path d="M5 48H91M48 5V91" stroke-opacity=".28"/><path d="M48 5v9M48 82v9M5 48h9M82 48h9" stroke-opacity=".88" stroke-width="1.7"/></g>
  <g class="motion" transform="translate(48 48)"><path d="M0 0 40-11A42 42 0 0 1 40 11Z" fill="#39FF14" fill-opacity=".14"/><path d="M0 0H41" stroke="#39FF14" stroke-width="2.2"/><animateTransform attributeName="transform" additive="sum" type="rotate" from="0" to="360" dur="4.8s" repeatCount="indefinite"/></g>
  <g class="static-sweep" transform="translate(48 48) rotate(34)"><path d="M0 0 40-11A42 42 0 0 1 40 11Z" fill="#39FF14" fill-opacity=".14"/><path d="M0 0H41" stroke="#39FF14" stroke-width="2.2"/></g>
  <circle cx="66" cy="29" r="3" fill="#39FF14"/><circle cx="30" cy="65" r="2.6" fill="#39FF14"/><circle cx="72" cy="68" r="2.7" fill="#FF2438"/>
  <circle cx="48" cy="48" r="2.8" fill="#F7FFF6"/>
</svg>
